<?xml version="1.0" encoding="UTF-8" standalone="no"?>
<!-- Created with Inkscape (http://www.inkscape.org/) -->

<svg
   xmlns:dc="http://purl.org/dc/elements/1.1/"
   xmlns:cc="http://creativecommons.org/ns#"
   xmlns:rdf="http://www.w3.org/1999/02/22-rdf-syntax-ns#"
   xmlns:svg="http://www.w3.org/2000/svg"
   xmlns="http://www.w3.org/2000/svg"
   xmlns:sodipodi="http://sodipodi.sourceforge.net/DTD/sodipodi-0.dtd"
   xmlns:inkscape="http://www.inkscape.org/namespaces/inkscape"
   width="49.936493"
   height="48.247536"
   id="svg3154"
   version="1.1"
   inkscape:version="0.48.2 r9819"
   sodipodi:docname="Novo documento 2">
  <defs
     id="defs3156" />
  <sodipodi:namedview
     id="base"
     pagecolor="#ffffff"
     bordercolor="#666666"
     borderopacity="1.0"
     inkscape:pageopacity="0.0"
     inkscape:pageshadow="2"
     inkscape:zoom="5.6"
     inkscape:cx="-10.915768"
     inkscape:cy="28.909349"
     inkscape:document-units="px"
     inkscape:current-layer="g101"
     showgrid="false"
     fit-margin-top="0"
     fit-margin-left="0"
     fit-margin-right="0"
     fit-margin-bottom="0"
     inkscape:window-width="1920"
     inkscape:window-height="996"
     inkscape:window-x="0"
     inkscape:window-y="25"
     inkscape:window-maximized="1" />
  <metadata
     id="metadata3159">
    <rdf:RDF>
      <cc:Work
         rdf:about="">
        <dc:format>image/svg+xml</dc:format>
        <dc:type
           rdf:resource="http://purl.org/dc/dcmitype/StillImage" />
        <dc:title></dc:title>
      </cc:Work>
    </rdf:RDF>
  </metadata>
  <g
     inkscape:label="Camada 1"
     inkscape:groupmode="layer"
     id="layer1"
     transform="translate(-277.8889,-496.80984)">
    <g
       style="display:inline"
       transform="matrix(0.9626989,0,0,0.93002984,-34.159802,683.46432)"
       id="g97"
       inkscape:export-filename="/home/fynn/Fractal/svgs/Jug2.png"
       inkscape:export-xdpi="51.603947"
       inkscape:export-ydpi="51.603947">
      <g
         id="g99"
         transform="matrix(0.81057622,0,0,0.81057622,165.4209,-235.75262)"
         style="stroke:none">
        <g
           id="g101"
           style="stroke:none">
          <path
             d="m 258.845,82.989 c -4.274,17.143 -21.637,27.576 -38.782,23.301 -17.138,-4.274 -27.571,-21.638 -23.295,-38.78 4.272,-17.145 21.635,-27.579 38.775,-23.305 17.144,4.274 27.576,21.64 23.302,38.784 z"
             id="path103"
             style="fill:#f7931a;stroke:none"
             inkscape:connector-curvature="0" />
          <g
             id="g105"
             style="stroke:none">
            <g
               id="g107"
               style="stroke:none">
              <path
                 d="m 245.81294,70.250718 c 0.7994,-5.343494 -3.26909,-8.21603 -8.8322,-10.132308 l 1.80459,-7.238439 -4.40606,-1.098064 -1.7569,7.047689 c -1.1583,-0.288634 -2.34797,-0.560954 -3.53012,-0.830764 l 1.76945,-7.094121 -4.40355,-1.098065 -1.80584,7.235929 c -0.95877,-0.218358 -1.89997,-0.434206 -2.81356,-0.661348 l 0.005,-0.02259 -6.07637,-1.517211 -1.1721,4.705989 c 0,0 3.26909,0.749194 3.20007,0.795626 1.78451,0.4455 2.10703,1.62639 2.05306,2.562568 l -2.05557,8.246148 c 0.12298,0.03137 0.28236,0.07655 0.45805,0.146826 -0.14683,-0.03639 -0.30369,-0.07655 -0.46558,-0.115453 l -2.88132,11.551634 c -0.21836,0.54213 -0.77178,1.355325 -2.01918,1.046612 0.0439,0.064 -3.20259,-0.799391 -3.20259,-0.799391 l -2.18734,5.043566 5.73378,1.429365 c 1.06669,0.267301 2.11204,0.54715 3.14109,0.810686 l -1.82342,7.321263 4.40104,1.098065 1.80585,-7.243459 c 1.20222,0.326282 2.36931,0.627465 3.51129,0.91108 l -1.79957,7.209575 4.40607,1.098064 1.82341,-7.30746 c 7.51327,1.421836 13.16296,0.848333 15.54106,-5.947115 1.91628,-5.471496 -0.0954,-8.627646 -4.04841,-10.685732 2.87881,-0.663858 5.04733,-2.557548 5.62585,-6.469166 z M 235.74589,84.36743 c -1.3616,5.471496 -10.57404,2.513625 -13.56077,1.771961 l 2.4195,-9.699357 c 2.98674,0.745429 12.56436,2.221227 11.14127,7.927396 z m 1.36286,-14.195773 c -1.24238,4.977054 -8.91001,2.448369 -11.39728,1.828434 l 2.19362,-8.797063 c 2.48727,0.619936 10.49749,1.776982 9.20366,6.968629 z"
                 id="path109"
                 style="fill:#ffffff;stroke:none"
                 inkscape:connector-curvature="0" />
            </g>
          </g>
        </g>
      </g>
      <g
         id="g111" />
    </g>
  </g>
</svg>
