<?xml version="1.0" encoding="UTF-8" standalone="no"?>
<!-- Created with Inkscape (http://www.inkscape.org/) -->

<svg
   xmlns:dc="http://purl.org/dc/elements/1.1/"
   xmlns:cc="http://creativecommons.org/ns#"
   xmlns:rdf="http://www.w3.org/1999/02/22-rdf-syntax-ns#"
   xmlns:svg="http://www.w3.org/2000/svg"
   xmlns="http://www.w3.org/2000/svg"
   xmlns:sodipodi="http://sodipodi.sourceforge.net/DTD/sodipodi-0.dtd"
   xmlns:inkscape="http://www.inkscape.org/namespaces/inkscape"
   inkscape:version="0.48.2 r9819"
   version="1.1"
   id="svg2"
   height="324.05646"
   width="324.00775"
   sodipodi:docname="gear.svg"
   inkscape:export-filename="/home/rodrigo/src/fractal/diggems/game/static/images/gear_24x24_m2.png"
   inkscape:export-xdpi="6.6655054"
   inkscape:export-ydpi="6.6655054"
   style="enable-background:new">
  <defs
     id="defs4">
    <inkscape:path-effect
       effect="spiro"
       id="path-effect3830"
       is_visible="true" />
    <inkscape:path-effect
       effect="spiro"
       id="path-effect3058"
       is_visible="true" />
    <inkscape:path-effect
       effect="spiro"
       id="path-effect4699"
       is_visible="true" />
    <inkscape:path-effect
       effect="spiro"
       id="path-effect4519"
       is_visible="true" />
    <inkscape:path-effect
       effect="spiro"
       id="path-effect4503"
       is_visible="true" />
    <inkscape:path-effect
       effect="spiro"
       id="path-effect4499"
       is_visible="true" />
    <inkscape:path-effect
       effect="spiro"
       id="path-effect4495"
       is_visible="true" />
    <inkscape:path-effect
       effect="spiro"
       id="path-effect4491"
       is_visible="true" />
    <inkscape:path-effect
       effect="spiro"
       id="path-effect4487"
       is_visible="true" />
    <inkscape:path-effect
       effect="spiro"
       id="path-effect4483"
       is_visible="true" />
    <filter
       id="filter3231"
       inkscape:label="Noise fill"
       inkscape:menu="ABCs"
       inkscape:menu-tooltip="Basic noise fill texture; adjust color in Flood"
       color-interpolation-filters="sRGB">
      <feTurbulence
         id="feTurbulence3233"
         numOctaves="5"
         baseFrequency="0.02"
         type="fractalNoise" />
      <feColorMatrix
         id="feColorMatrix3235"
         result="result0"
         values="1 0 0 0 0 0 1 0 0 0 0 0 1 0 0 0 0 0 3 -1 " />
      <feFlood
         id="feFlood3237"
         flood-opacity="1"
         flood-color="rgb(145,199,195)"
         result="result1" />
      <feBlend
         id="feBlend3239"
         in2="SourceGraphic"
         mode="normal"
         in="result1"
         result="result2" />
      <feComposite
         id="feComposite3241"
         in2="result0"
         operator="out"
         result="result3" />
      <feComposite
         id="feComposite3243"
         in2="SourceGraphic"
         operator="atop" />
    </filter>
    <filter
       id="filter3245"
       inkscape:label="Metallized paint"
       inkscape:menu="Materials"
       inkscape:menu-tooltip="Metallized effect with a soft lighting, slightly translucent at the edges"
       height="1.1"
       width="1.1"
       y="-0.050000001"
       x="-0.050000001"
       color-interpolation-filters="sRGB">
      <feGaussianBlur
         id="feGaussianBlur3247"
         stdDeviation="1"
         result="result1" />
      <feComposite
         id="feComposite3249"
         in2="result1"
         in="result1"
         result="result4"
         operator="in" />
      <feBlend
         id="feBlend3251"
         in2="result4"
         in="result1"
         mode="screen"
         result="result5" />
      <feGaussianBlur
         id="feGaussianBlur3253"
         stdDeviation="8"
         result="result6"
         in="result5" />
      <feComposite
         id="feComposite3255"
         in2="result5"
         operator="atop"
         in="result6"
         result="result8" />
      <feComposite
         id="feComposite3257"
         in2="result8"
         operator="in"
         result="fbSourceGraphic"
         in="result6" />
      <feGaussianBlur
         id="feGaussianBlur3259"
         result="result0"
         in="fbSourceGraphic"
         stdDeviation="2.5" />
      <feSpecularLighting
         id="feSpecularLighting3261"
         specularExponent="45"
         specularConstant="1.5"
         surfaceScale="1"
         lighting-color="#ffffff"
         result="result1"
         in="result0">
        <fePointLight
           id="fePointLight3263"
           z="21000"
           y="-9000"
           x="-6000" />
      </feSpecularLighting>
      <feComposite
         id="feComposite3265"
         in2="fbSourceGraphic"
         operator="in"
         result="result2"
         in="result1" />
      <feComposite
         id="feComposite3267"
         in2="result2"
         k3="1"
         k2="1"
         operator="arithmetic"
         result="result4"
         in="fbSourceGraphic"
         k1="0"
         k4="0" />
      <feComposite
         id="feComposite3269"
         in2="result4"
         operator="in"
         result="result91" />
      <feBlend
         id="feBlend3271"
         in2="result91"
         mode="multiply" />
    </filter>
    <filter
       id="filter3589"
       inkscape:menu-tooltip="Pressed metal with a rolled edge"
       inkscape:menu="Bevels"
       inkscape:label="Pressed steel"
       color-interpolation-filters="sRGB">
      <feGaussianBlur
         id="feGaussianBlur3591"
         result="result1"
         stdDeviation="3" />
      <feBlend
         id="feBlend3593"
         in2="result1"
         result="result5"
         mode="multiply"
         in="result1" />
      <feGaussianBlur
         id="feGaussianBlur3595"
         in="result5"
         result="result6"
         stdDeviation="1" />
      <feComposite
         id="feComposite3597"
         in2="result5"
         result="result8"
         in="result6"
         operator="xor" />
      <feComposite
         id="feComposite3599"
         in2="result8"
         in="result6"
         result="fbSourceGraphic"
         operator="xor" />
      <feSpecularLighting
         id="feSpecularLighting3601"
         in="fbSourceGraphic"
         result="result1"
         lighting-color="#ffffff"
         surfaceScale="2"
         specularConstant="2.20000005"
         specularExponent="55">
        <fePointLight
           id="fePointLight3603"
           x="-5000"
           y="-10000"
           z="20000" />
      </feSpecularLighting>
      <feComposite
         id="feComposite3605"
         in2="fbSourceGraphic"
         in="result1"
         result="result2"
         operator="in" />
      <feComposite
         id="feComposite3607"
         in2="result2"
         in="fbSourceGraphic"
         result="result4"
         operator="arithmetic"
         k2="2"
         k3="1"
         k1="0"
         k4="0" />
      <feComposite
         id="feComposite3609"
         in2="result4"
         operator="in"
         result="result91" />
      <feBlend
         id="feBlend3611"
         in2="result91"
         mode="darken" />
    </filter>
    <filter
       id="filter3617"
       inkscape:label="Metal casting"
       x="0"
       y="0"
       width="1"
       height="1"
       inkscape:menu="Bevels"
       inkscape:menu-tooltip="Smooth drop-like bevel with metallic finish"
       color-interpolation-filters="sRGB">
      <feColorMatrix
         id="feColorMatrix3619"
         values="0.37"
         type="saturate"
         in="SourceGraphic"
         result="result1" />
      <feGaussianBlur
         id="feGaussianBlur3621"
         stdDeviation="7"
         in="SourceAlpha" />
      <feSpecularLighting
         id="feSpecularLighting3623"
         specularExponent="8"
         specularConstant="3.88000011"
         surfaceScale="10"
         result="result2">
        <feDistantLight
           id="feDistantLight3625"
           azimuth="225"
           elevation="17" />
      </feSpecularLighting>
      <feComposite
         id="feComposite3627"
         in2="result1"
         operator="atop" />
    </filter>
    <filter
       id="filter3651"
       inkscape:menu-tooltip="Glowing metal texture"
       inkscape:menu="Bevels"
       inkscape:label="Glowing metal"
       color-interpolation-filters="sRGB">
      <feGaussianBlur
         id="feGaussianBlur3653"
         stdDeviation="3"
         result="result10" />
      <feBlend
         id="feBlend3655"
         in2="SourceGraphic"
         result="result5"
         mode="multiply"
         in="result10" />
      <feComposite
         id="feComposite3657"
         in2="SourceGraphic"
         in="result5"
         result="fbSourceGraphic"
         operator="over" />
      <feGaussianBlur
         id="feGaussianBlur3659"
         result="result9"
         stdDeviation="5" />
      <feSpecularLighting
         id="feSpecularLighting3661"
         in="result9"
         result="result1"
         lighting-color="#ffffff"
         surfaceScale="1"
         specularConstant="2.20000005"
         specularExponent="45">
        <fePointLight
           id="fePointLight3663"
           x="-5000"
           y="-10000"
           z="20000" />
      </feSpecularLighting>
      <feComposite
         id="feComposite3665"
         in2="fbSourceGraphic"
         in="result1"
         result="result2"
         operator="in" />
      <feComposite
         id="feComposite3667"
         in2="fbSourceGraphic"
         in="result2"
         result="result4"
         operator="arithmetic"
         k2="2"
         k3="0.8"
         k1="0"
         k4="0" />
      <feBlend
         id="feBlend3669"
         in2="result4"
         in="result4"
         mode="multiply" />
    </filter>
  </defs>
  <sodipodi:namedview
     id="base"
     pagecolor="#ffffff"
     bordercolor="#666666"
     borderopacity="1.0"
     inkscape:pageopacity="0.0"
     inkscape:pageshadow="2"
     inkscape:zoom="0.90348835"
     inkscape:cx="-16.499444"
     inkscape:cy="120.8947"
     inkscape:document-units="px"
     inkscape:current-layer="g4526"
     showgrid="false"
     inkscape:window-width="1920"
     inkscape:window-height="996"
     inkscape:window-x="0"
     inkscape:window-y="25"
     inkscape:window-maximized="1"
     fit-margin-top="0"
     fit-margin-left="0"
     fit-margin-right="0"
     fit-margin-bottom="0" />
  <metadata
     id="metadata7">
    <rdf:RDF>
      <cc:Work
         rdf:about="">
        <dc:format>image/svg+xml</dc:format>
        <dc:type
           rdf:resource="http://purl.org/dc/dcmitype/StillImage" />
        <dc:title></dc:title>
      </cc:Work>
    </rdf:RDF>
  </metadata>
  <g
     inkscape:label="gear"
     inkscape:groupmode="layer"
     id="layer1"
     transform="translate(-238.35048,-737.03892)"
     style="display:inline">
    <g
       id="g4526">
      <path
         style="fill:#1a1a1a;fill-opacity:1;stroke:none"
         d="m 397.71875,737.0625 c -10.70828,0.38762 -22.26129,1.13182 -32.0625,4.15625 -2.74208,9.08938 -2.91797,18.84856 -7.21875,27.4375 -7.42678,2.25039 -14.604,5.39085 -21.5,9 -8.03596,-5.04163 -16.17681,-9.87018 -24.1875,-15 -19.42754,12.8149 -36.0418,29.44541 -48.78125,48.75 4.37028,8.6533 11.37228,15.87802 14.46875,25.15625 -3.59138,6.90112 -6.49033,14.14057 -8.8125,21.5625 -9.20836,2.22735 -18.41994,4.41762 -27.65625,6.375 -4.77225,22.67999 -4.88668,46.45667 0.0312,69.125 9.07259,3.30492 20.41594,2.50097 28.1875,8.21875 2.27709,7.04865 5.16833,13.99343 8.71875,20.59375 -4.91696,8.16307 -9.91522,16.22149 -15,24.28125 12.87649,19.53695 29.32373,35.86045 48.78125,48.81245 8.9279,-3.9226 16.36277,-13.3374 26.4375,-13.9062 6.49404,3.3233 13.2785,6.0365 20.25,8.1875 2.22656,9.1953 4.40753,18.4034 6.375,27.625 22.66044,4.834 46.43322,4.9097 69.09375,0.031 3.34134,-9.0604 2.54117,-20.4506 8.25,-28.2188 7.07799,-2.2932 14.02719,-5.1646 20.5625,-8.7188 8.13072,4.9951 16.3166,9.9176 24.34375,15.0626 19.30441,-12.9238 36.19039,-29.3342 48.78125,-48.93755 -4.82968,-8.24878 -10.60258,-15.92618 -14.8125,-24.53125 3.71052,-7.09137 6.7532,-14.4389 9.15625,-22.0625 9.18068,-2.191 18.36208,-4.38504 27.5625,-6.34375 4.88799,-22.68526 4.90073,-46.5 0,-69.1875 -9.2339,-2.75468 -19.22565,-3.08833 -27.90625,-7.46875 -2.37077,-7.38297 -5.28495,-14.5998 -9,-21.40625 5.04098,-8.00538 9.91104,-16.1182 15,-24.09375 -12.64163,-19.51938 -29.3311,-36.07939 -48.75,-48.84375 -8.68823,4.36557 -15.89214,11.39034 -25.125,14.5 -6.91255,-3.58474 -14.1216,-6.64301 -21.5625,-8.84375 -2.19492,-9.20567 -4.34114,-18.42068 -6.40625,-27.65625 -12.25516,-2.49203 -24.68926,-3.87897 -37.21875,-3.65625 z m 3.5625,111.28125 c 31.64609,-0.30604 57.89817,34.73543 47.8125,64.875 -7.65428,27.69195 -41.93822,45.14598 -68.34375,32.5 -24.65869,-9.88245 -38.57933,-41.25179 -27.125,-65.78125 7.751,-18.82978 27.10137,-32.27023 47.65625,-31.59375 z"
         id="path3291"
         inkscape:connector-curvature="0" />
      <path
         style="fill:#4d4d4d;fill-opacity:1;stroke:none"
         d="m 399.09375,739.09375 c -10.68088,-0.1454 -21.01256,1.5956 -31.5,3.125 -2.6401,9.19457 -3.64429,18.77304 -7.03125,27.78125 -8.17946,2.70897 -16.13112,5.84999 -23.71875,10 -7.93498,-5.11216 -16.09737,-9.85676 -24.1875,-14.71875 -18.49792,12.00981 -33.97924,28.09266 -46.46875,46.21875 4.55301,8.50175 11.72014,15.80099 14.4375,25.21875 -3.92345,7.37433 -7.01343,15.07357 -9.4375,23.125 -9.34355,2.20468 -18.72843,4.26669 -27.96875,6.875 -3.6349,21.52826 -4.04111,43.90065 0.40625,65.34375 9.01983,2.4887 18.74754,3.44889 27.65625,6.84375 2.6249,8.09471 5.75241,16.13652 9.96875,23.59375 -4.95737,8.14884 -10.05296,16.20985 -14.75,24.5 12.25421,18.2533 28.05386,33.9121 46.3125,46.3125 8.42721,-4.7198 15.84179,-11.6847 25.21875,-14.4063 7.41045,3.8136 15.14963,6.9777 23.09375,9.3438 2.17576,9.2689 4.13813,18.6986 6.875,27.75 21.46248,4.1033 43.87508,4.2654 65.28125,-0.2812 3.13263,-9.1272 2.41022,-20.4375 8.3125,-28.0626 7.64205,-2.4565 15.09543,-5.6095 22.1875,-9.4687 8.22193,4.9943 16.25897,10.3261 24.8125,14.7187 17.92942,-12.4505 33.6728,-28.054 45.90625,-46.18745 -4.62542,-8.52639 -11.54203,-15.88058 -14.4375,-25.28125 3.835,-7.3984 7.02536,-15.03535 9.40625,-23.03125 9.29851,-2.19294 18.61915,-4.3054 27.8125,-6.90625 4.08176,-21.49445 4.03008,-43.8564 -0.0625,-65.34375 -9.18472,-3.16889 -20.77588,-2.29394 -28.40625,-8.4375 -2.4946,-7.66085 -5.41658,-15.0825 -9.34375,-22.09375 4.99324,-8.21244 10.40447,-16.18377 14.65625,-24.71875 -12.41269,-18.06049 -28.06648,-33.61366 -46.09375,-45.9375 -8.78072,4.19407 -16.35956,12.79543 -26,13.9375 -7.19795,-3.59005 -14.82014,-6.1903 -22.375,-9.1875 -2.10407,-9.62308 -4.32458,-19.1261 -8.34375,-28.125 -10.66389,-1.32653 -21.40323,-2.72385 -32.21875,-2.5 z M 400.5,846.1875 c 34.26894,-0.82981 62.44616,38.36597 49.78125,70.4375 -9.69077,27.5349 -44.7968,43.97132 -71.46875,30.59375 -26.24388,-11.33273 -40.07417,-46.72194 -25.21875,-72.0625 8.83588,-17.16315 27.42889,-29.10796 46.90625,-28.96875 z"
         id="path3421"
         inkscape:connector-curvature="0" />
    </g>
  </g>
  <g
     inkscape:groupmode="layer"
     id="layer5"
     inkscape:label="shadow"
     style="display:inline"
     sodipodi:insensitive="true"
     transform="translate(10.002366,10.044972)">
    <path
       sodipodi:nodetypes="ccccccc"
       inkscape:connector-curvature="0"
       inkscape:original-d="m 313.88233,1021.9497 -10.57787,-7.8738 31.27038,-13.8346 34.12489,14.5026 -0.005,6.7433 -31.60606,-13.0757 z"
       inkscape:path-effect="#path-effect4487"
       id="path4485"
       d="m 313.88233,1021.9497 -10.57787,-7.8738 31.27038,-13.8346 34.12489,14.5026 -0.005,6.7433 -31.60606,-13.0757 -23.20634,13.5382"
       style="opacity:0.4;fill:#000000;fill-opacity:1;stroke:#000000;stroke-width:1px;stroke-linecap:butt;stroke-linejoin:miter;stroke-opacity:1"
       transform="translate(-248.35285,-747.08389)" />
    <path
       sodipodi:nodetypes="ccccccccccccccccccccccc"
       inkscape:connector-curvature="0"
       inkscape:original-d="m 523.59556,986.22963 -14.38868,-23.31243 12.19506,-31.85264 28.4474,-7.25572 0.55341,-33.82518 -5.71824,8.69824 -0.6148,22.71764 -25.18832,6.40593 -15.69284,36.77197 11.06821,17.91666 -34.44981,28.9157 -20.19949,-13.42021 -33.61969,10.65321 -4.56564,25.0418 -42.88931,0.2767 -6.91763,-6.2259 c 0,0 3.29644,17.7486 3.80469,20.8221 6.64093,1.5219 26.49453,3.2513 50.56789,-0.069 l 0,-10e-5 6.08752,-26.7021 c 1.93694,0.6918 9.96138,-1.3836 32.37451,-13.697 l 23.3816,14.6654 c 0,0 29.74582,-25.0418 35.76416,-36.52507 z"
       inkscape:path-effect="#path-effect4503"
       id="path4501"
       d="m 523.59556,986.22963 -14.38868,-23.31243 12.19506,-31.85264 28.4474,-7.25572 0.55341,-33.82518 -5.71824,8.69824 -0.6148,22.71764 -25.18832,6.40593 -15.69284,36.77197 11.06821,17.91666 -34.44981,28.9157 -20.19949,-13.42021 -33.61969,10.65321 -4.56564,25.0418 -42.88931,0.2767 -6.91763,-6.2259 3.80469,20.8221 50.56789,-0.069 0,-10e-5 6.08752,-26.7021 32.37451,-13.697 23.3816,14.6654 35.76416,-36.52507"
       style="opacity:0.4;fill:#000000;fill-opacity:1;stroke:#000000;stroke-opacity:1"
       transform="translate(-248.35285,-747.08389)" />
    <path
       sodipodi:nodetypes="cccccc"
       inkscape:connector-curvature="0"
       inkscape:original-d="m 252.90862,917.33001 -0.69176,6.36422 26.42536,6.64093 13.55855,31.8211 c -2.49034,-4.56563 -9.26962,-35.41827 -9.26962,-35.41827 z"
       inkscape:path-effect="#path-effect4519"
       id="path4517"
       d="m 252.90862,917.33001 -0.69176,6.36422 26.42536,6.64093 13.55855,31.8211 -9.26962,-35.41827 -30.02253,-9.40798"
       style="opacity:0.4;fill:#000000;fill-opacity:1;stroke:#000000;stroke-width:1px;stroke-linecap:butt;stroke-linejoin:miter;stroke-opacity:1"
       transform="translate(-248.35285,-747.08389)" />
    <path
       inkscape:connector-curvature="0"
       id="path4521"
       d="m 398.02301,829.54442 c -34.98505,0 -63.35425,28.82909 -63.35425,64.41923 0,29.69668 19.75923,54.70543 46.62316,62.1724 -23.49179,-8.59576 -41.67977,-32.2603 -40.6629,-58.20199 -0.12341,-28.37849 21.04328,-55.9261 49.01332,-60.38725 3.88802,-0.79876 7.83331,-1.13324 11.82976,-1.23114 28.25734,-0.81377 53.61035,22.38043 59.42108,49.70714 -3.8538,-31.83572 -30.53358,-56.47839 -62.87017,-56.47839 z"
       style="opacity:0.4;fill:#000000;fill-opacity:1;stroke:none"
       transform="translate(-248.35285,-747.08389)" />
  </g>
  <g
     inkscape:groupmode="layer"
     id="layer4"
     inkscape:label="light"
     style="display:inline"
     sodipodi:insensitive="true"
     transform="translate(10.002366,10.044972)">
    <path
       sodipodi:nodetypes="ccccccc"
       inkscape:connector-curvature="0"
       id="path3671"
       d="m 251.97912,874.97945 1.13392,15.85423 33.10421,-7.45475 12.79776,-36.10796 -5.9276,-11.75181 c -7.29289,10.78752 -11.09633,21.08439 -13.4948,32.88312 z"
       style="opacity:0.4;fill:#ffffff;fill-opacity:1;stroke:none"
       transform="translate(-248.35285,-747.08389)" />
    <path
       sodipodi:nodetypes="ccccc"
       inkscape:connector-curvature="0"
       id="path3673"
       d="m 278.54888,812.09555 7.85421,8.14652 40.31296,-33.3994 c -3.32622,-3.32622 -12.41052,-9.46409 -13.9324,-9.46409 -18.26255,10.92986 -34.23477,34.71697 -34.23477,34.71697 z"
       style="opacity:0.4;fill:#ffffff;fill-opacity:1;stroke:none"
       transform="translate(-248.35285,-747.08389)" />
    <path
       sodipodi:nodetypes="ccccccccc"
       inkscape:connector-curvature="0"
       id="path3675"
       d="m 369.75363,777.90082 c -13.30489,2.54358 -33.39988,13.85015 -33.39988,13.85015 l 10.4846,5.80842 32.67863,-11.74536 3.78707,-23.02652 45.38888,1.0507 -4.32806,-12.59466 c -28.76204,-4.98933 -48.81195,0.34385 -48.81195,0.34385 z"
       style="opacity:0.4;fill:#ffffff;fill-opacity:1;stroke:none"
       transform="translate(-248.35285,-747.08389)" />
    <path
       sodipodi:nodetypes="ccccccc"
       inkscape:connector-curvature="0"
       id="path3679"
       d="m 442.97464,781.95981 3.50222,9.88611 26.10793,12.44528 26.38834,-18.61181 -11.1923,-8.21976 c 0,0 -23.65318,13.45512 -23.99906,13.93936 -3.45882,-3.32047 -20.80713,-9.43918 -20.80713,-9.43918 z"
       style="opacity:0.4;fill:#ffffff;fill-opacity:1;stroke:none"
       transform="translate(-248.35285,-747.08389)" />
    <path
       sodipodi:nodetypes="ccccc"
       inkscape:connector-curvature="0"
       id="path3681"
       d="m 525.05289,869.04657 6.86608,11.92951 18.48224,5.20179 -2.30044,-11.73555 z"
       style="opacity:0.4;fill:#ffffff;fill-opacity:1;stroke:none"
       transform="translate(-248.35285,-747.08389)" />
    <path
       sodipodi:nodetypes="ccccc"
       inkscape:connector-curvature="0"
       id="path3683"
       d="m 292.67237,963.00686 8.6443,6.78672 -16.92917,24.52228 -6.24483,-7.75112 z"
       style="opacity:0.4;fill:#ffffff;fill-opacity:1;stroke:none"
       transform="translate(-248.35285,-747.08389)" />
    <path
       sodipodi:nodetypes="ccccccc"
       inkscape:connector-curvature="0"
       id="path3704"
       d="m 462.75069,906.14073 c -4.79483,31.00078 -27.45627,52.70609 -57.59997,55.64972 -19.00814,1.70319 -37.39172,-7.01997 -50.95955,-20.21632 15.94243,21.13702 44.55519,32.95513 69.25213,23.60023 25.18565,-8.87243 41.28822,-32.83933 39.38805,-59.59816 -0.045,0.36682 -0.0253,0.63621 -0.0807,0.56453 z"
       style="opacity:0.4;fill:#ffffff;fill-opacity:1;stroke:none"
       transform="translate(-248.35285,-747.08389)" />
  </g>
</svg>
