<?xml version="1.0" encoding="UTF-8" standalone="no"?>
<!-- Created with Inkscape (http://www.inkscape.org/) -->
<svg xmlns:dc="http://purl.org/dc/elements/1.1/" xmlns:cc="http://creativecommons.org/ns#" xmlns:rdf="http://www.w3.org/1999/02/22-rdf-syntax-ns#" xmlns:svg="http://www.w3.org/2000/svg" xmlns="http://www.w3.org/2000/svg" xmlns:sodipodi="http://sodipodi.sourceforge.net/DTD/sodipodi-0.dtd" xmlns:inkscape="http://www.inkscape.org/namespaces/inkscape" width="391.90591" height="391.93503" id="svg2" version="1.1" inkscape:version="0.48.2 r9819" sodipodi:docname="gears.svg" inkscape:export-filename="C:\Users\user\Documents\img\fotoVectors\gears.png" inkscape:export-xdpi="90" inkscape:export-ydpi="90">
  <defs id="defs4">
    <filter id="filter3002" inkscape:menu-tooltip="Roughen all inside shapes" inkscape:menu="Distort" inkscape:label="Roughen inside" color-interpolation-filters="sRGB">
      <feGaussianBlur id="feGaussianBlur3004" result="result1" stdDeviation="3"/>
      <feBlend id="feBlend3006" in2="result1" result="result5" mode="multiply" in="result1"/>
      <feGaussianBlur id="feGaussianBlur3008" in="result5" result="result6" stdDeviation="1"/>
      <feComposite id="feComposite3010" in2="result5" result="result8" in="result6" operator="xor"/>
      <feComposite id="feComposite3012" in2="result8" in="result6" result="fbSourceGraphic" operator="xor"/>
      <feSpecularLighting id="feSpecularLighting3014" in="fbSourceGraphic" result="result1" lighting-color="#ffffff" surfaceScale="2" specularConstant="2.20000005" specularExponent="55">
        <fePointLight id="fePointLight3016" x="-5000" y="-10000" z="20000"/>
      </feSpecularLighting>
      <feComposite id="feComposite3018" in2="fbSourceGraphic" in="result1" result="result2" operator="in"/>
      <feComposite id="feComposite3020" in2="result2" in="fbSourceGraphic" result="result4" operator="arithmetic" k2="2" k3="1" k1="0" k4="0"/>
      <feComposite id="feComposite3022" in2="result4" operator="in" result="result91"/>
      <feBlend id="feBlend3024" in2="result91" mode="darken" result="fbSourceGraphic"/>
      <feColorMatrix result="fbSourceGraphicAlpha" in="fbSourceGraphic" values="0 0 0 -1 0 0 0 0 -1 0 0 0 0 -1 0 0 0 0 1 0" id="feColorMatrix3026"/>
      <feTurbulence id="feTurbulence3028" numOctaves="5" seed="0" type="fractalNoise" baseFrequency="0.08"/>
      <feGaussianBlur id="feGaussianBlur3030" stdDeviation="0.5" result="result91"/>
      <feDisplacementMap id="feDisplacementMap3032" in2="result91" scale="20" yChannelSelector="G" xChannelSelector="R" in="fbSourceGraphic" result="result1"/>
      <feComposite id="feComposite3034" in2="fbSourceGraphic" in="result1" operator="atop"/>
    </filter>
    <filter id="filter3046" inkscape:label="Noise transparency" inkscape:menu="ABCs" inkscape:menu-tooltip="Basic noise transparency texture" height="1.4" y="-0.2" width="1.4" x="-0.2" color-interpolation-filters="sRGB">
      <feTurbulence id="feTurbulence3048" baseFrequency="0.05" numOctaves="5" type="fractalNoise" result="result91"/>
      <feDisplacementMap id="feDisplacementMap3050" in2="result91" scale="25" result="result5" xChannelSelector="R" in="SourceGraphic" yChannelSelector="A"/>
      <feComposite id="feComposite3052" in2="result5" in="SourceGraphic" operator="atop" result="fbSourceGraphic"/>
      <feColorMatrix result="fbSourceGraphicAlpha" in="fbSourceGraphic" values="0 0 0 -1 0 0 0 0 -1 0 0 0 0 -1 0 0 0 0 1 0" id="feColorMatrix3054"/>
      <feTurbulence id="feTurbulence3056" type="fractalNoise" numOctaves="5" baseFrequency="0.02" result="result1"/>
      <feComposite id="feComposite3058" in2="result1" operator="in" result="result2" in="fbSourceGraphic"/>
      <feColorMatrix id="feColorMatrix3060" result="result3" values="1 0 0 0 0 0 1 0 0 0 0 0 1 0 0 0 0 0 3 -1 " in="result2"/>
    </filter>
  </defs>
  <sodipodi:namedview id="base" pagecolor="#ffffff" bordercolor="#666666" borderopacity="1.0" inkscape:pageopacity="0.0" inkscape:pageshadow="2" inkscape:zoom="0.35" inkscape:cx="190.26546" inkscape:cy="161.0116" inkscape:document-units="px" inkscape:current-layer="layer1" showgrid="false" inkscape:window-width="1366" inkscape:window-height="706" inkscape:window-x="-8" inkscape:window-y="-8" inkscape:window-maximized="1" fit-margin-top="0" fit-margin-left="0" fit-margin-right="0" fit-margin-bottom="0" showborder="false" inkscape:showpageshadow="false"/>
  <g inkscape:label="Layer 1" inkscape:groupmode="layer" id="layer1" transform="translate(-184.73454,-301.43874)">
    <path style="fill:#2b1100;fill-opacity:1;stroke:none;filter:url(#filter3002)" d="m 380.6875,347.40625 c -8.44016,0 -16.72115,0.69151 -24.78125,2.03125 L 349.375,376.375 c -11.41887,2.9447 -22.18397,7.46641 -32.09375,13.3125 L 293.59375,375.25 c -13.52063,9.65743 -25.37013,21.51344 -35.03125,35.03125 l 14.40625,23.65625 c -5.85937,9.92252 -10.3632,20.71954 -13.3125,32.15625 l -26.9375,6.53125 c -1.33974,8.0601 -2.03125,16.34109 -2.03125,24.78125 0,8.43504 0.6931,16.69452 2.03125,24.75 l 26.90625,6.53125 c 2.94678,11.44162 7.48464,22.2293 13.34375,32.15625 L 258.5625,584.5 c 9.66112,13.51781 21.51062,25.37382 35.03125,35.03125 L 317.25,605.125 c 9.91615,5.85273 20.69721,10.3655 32.125,13.3125 l 6.53125,26.90625 c 8.06093,1.34002 16.34017,2.0625 24.78125,2.0625 8.44108,0 16.72032,-0.72248 24.78125,-2.0625 L 412,618.4375 c 11.42779,-2.947 22.20885,-7.45977 32.125,-13.3125 l 23.65625,14.40625 c 13.53202,-9.66556 25.36569,-21.53048 35.03125,-35.0625 l -14.40625,-23.625 c 5.85911,-9.92695 10.39697,-20.71463 13.34375,-32.15625 l 26.90625,-6.53125 c 1.33815,-8.05548 2.03125,-16.31496 2.03125,-24.75 0,-8.44016 -0.69151,-16.72115 -2.03125,-24.78125 l -26.9375,-6.53125 c -2.947,-11.42779 -7.45977,-22.20885 -13.3125,-32.125 L 502.8125,410.3125 C 493.14694,396.78048 481.31327,384.91556 467.78125,375.25 l -23.6875,14.4375 C 434.18397,383.84141 423.41887,379.3197 412,376.375 l -6.53125,-26.9375 c -8.0601,-1.33974 -16.34109,-2.03125 -24.78125,-2.03125 z m 0,75 c 41.42136,0 75,33.57864 75,75 0,41.42136 -33.57864,75 -75,75 -41.42136,0 -75,-33.57864 -75,-75 0,-41.42136 33.57864,-75 75,-75 z" id="path2987" inkscape:connector-curvature="0"/>
    <path style="fill:#803300;fill-opacity:1;stroke:none;filter:url(#filter3046)" d="m 377.82961,357.46382 c -4.47422,0.68389 -10.87382,-0.60594 -14.07839,1.97208 -2.01663,8.38656 -4.06033,16.76661 -6.07786,25.15292 -14.27791,3.14547 -28.02247,8.75519 -40.3125,16.84375 -7.81628,-4.53603 -15.39001,-9.49612 -23.1875,-14.0625 -8.69096,6.91448 -16.61125,14.67278 -23.5,23.46875 4.66899,7.69242 9.354,15.3751 14.03125,23.0625 -7.95438,12.33762 -13.76906,26.09928 -16.75,40.46875 -8.72537,2.28493 -17.57115,4.08998 -26.28125,6.4375 -1.2667,11.04147 -1.27266,22.24011 0,33.28125 8.72647,2.12567 17.45359,4.24887 26.1875,6.34375 3.13582,14.30333 8.73654,28.11469 16.84375,40.40625 -4.52523,7.77591 -9.52389,15.28739 -14,23.09375 6.83452,8.77357 14.67846,16.62386 23.46875,23.53125 7.6548,-4.66541 15.31807,-9.31689 23,-13.9375 12.46951,7.77014 26.13412,13.7682 40.4375,16.625 2.34398,8.71466 4.07015,17.59268 6.5,26.28125 11.04213,1.27846 22.23808,1.25612 33.28125,0 2.12314,-8.73748 4.26329,-17.47105 6.34375,-26.21875 14.29869,-3.00559 28.02065,-8.84253 40.4375,-16.625 7.78057,4.42521 15.34465,9.23627 23,13.875 8.78867,-6.91373 16.68921,-14.73835 23.5625,-23.5625 -4.63572,-7.63915 -9.35747,-15.2276 -13.875,-22.9375 7.70485,-12.51723 13.65242,-26.18678 16.65625,-40.53125 8.7151,-2.19067 17.50933,-4.0774 26.1875,-6.40625 1.31563,-11.03971 1.20475,-22.23317 0.0312,-33.28125 -8.75266,-2.14634 -17.51637,-4.24822 -26.28125,-6.34375 -2.92932,-14.29377 -8.82353,-27.98356 -16.59375,-40.375 4.33879,-7.85811 9.39416,-15.30313 13.84375,-23.09375 -6.86954,-8.82548 -14.71889,-16.64466 -23.5,-23.5625 -7.67781,4.68631 -15.34983,9.38213 -23.03125,14.0625 -12.28861,-7.97326 -25.95938,-13.62458 -40.25,-16.78125 -2.86058,-8.59073 -3.82318,-17.59141 -6.65625,-26.1875 -6.44148,-0.79488 -12.94776,-1.15229 -19.4375,-1 z m 3.3125,54.84375 c 46.06237,-0.86225 87.58583,41.91566 84.68544,88.06194 -1.11008,41.66499 -36.50829,79.91122 -78.52508,81.9036 -39.19633,3.213 -79.09139,-23.42007 -88.56661,-61.96554 -9.65529,-34.59301 4.45567,-75.07688 35.3125,-93.9375 13.8935,-9.08263 30.38788,-14.0876 47.09375,-14.0625 z" id="path3000" inkscape:connector-curvature="0"/>
  </g>
  <metadata>
    <rdf:RDF>
      <cc:Work>
        <dc:format>image/svg+xml</dc:format>
        <dc:type rdf:resource="http://purl.org/dc/dcmitype/StillImage"/>
        <cc:license rdf:resource="http://creativecommons.org/licenses/publicdomain/"/>
        <dc:publisher>
          <cc:Agent rdf:about="http://openclipart.org/">
            <dc:title>Open Clip Art Library</dc:title>
          </cc:Agent>
        </dc:publisher>
        <dc:title>Gear</dc:title>
        <dc:date>2012-02-08T20:42:35</dc:date>
        <dc:description>The picture of a gear</dc:description>
        <dc:source>http://openclipart.org/detail/168010/gear-by-gadgetscode</dc:source>
        <dc:creator>
          <cc:Agent>
            <dc:title>gadgetscode</dc:title>
          </cc:Agent>
        </dc:creator>
        <dc:subject>
          <rdf:Bag>
            <rdf:li>clip art</rdf:li>
            <rdf:li>clipart</rdf:li>
            <rdf:li>gear</rdf:li>
            <rdf:li>machine</rdf:li>
            <rdf:li>mechanical</rdf:li>
            <rdf:li>tool</rdf:li>
          </rdf:Bag>
        </dc:subject>
      </cc:Work>
      <cc:License rdf:about="http://creativecommons.org/licenses/publicdomain/">
        <cc:permits rdf:resource="http://creativecommons.org/ns#Reproduction"/>
        <cc:permits rdf:resource="http://creativecommons.org/ns#Distribution"/>
        <cc:permits rdf:resource="http://creativecommons.org/ns#DerivativeWorks"/>
      </cc:License>
    </rdf:RDF>
  </metadata>
</svg>